# Blender 3.3.0
# www.blender.org
mtllib Ramp.mtl
o Cube
v -1.000000 0.007845 1.000000
v -1.000000 -0.002006 -5.190770
v -1.000000 1.997994 -5.190770
v 1.000000 0.007845 1.000000
v 1.000000 -0.002006 -5.190770
v 1.000000 1.997994 -5.190770
v -1.000000 -0.002007 -2.095385
v -1.000000 1.997993 -2.095385
v 1.000000 -0.002007 -2.095385
v 1.000000 1.997993 -2.095385
v -1.000000 -0.002006 -3.643078
v -1.000000 1.997994 -3.643077
vn -1.0000 -0.0000 -0.0000
vn -0.0000 -0.0000 -1.0000
vn 1.0000 -0.0000 -0.0000
vn -0.0000 -1.0000 0.0032
vn -0.0000 0.8411 0.5408
vn -0.0000 1.0000 -0.0000
vn -0.0000 -1.0000 -0.0000
vt 0.625000 0.000000
vt 0.125000 0.750000
vt 0.875000 0.750000
vt 0.375000 0.250000
vt 0.125000 0.500000
vt 0.625000 0.250000
vt 0.875000 0.500000
vt 0.375000 0.750000
vt 0.625000 0.750000
vt 0.375000 0.500000
vt 0.625000 0.500000
vt 0.125000 0.625000
vt 0.375000 0.125000
vt 0.875000 0.625000
vt 0.625000 0.125000
vt 0.375000 0.625000
vt 0.625000 0.625000
vt 0.125000 0.562500
vt 0.375000 0.187500
vt 0.875000 0.562500
vt 0.625000 0.187500
s 0
f 2/4/1 11/19/1 12/21/1 3/6/1
f 3/6/2 5/10/2 2/4/2
f 9/16/3 10/17/3 4/8/3
f 9/16/4 1/2/4 7/12/4
f 8/14/5 4/9/5 10/17/5
f 3/7/6 10/17/6 6/11/6
f 5/10/7 7/12/7 11/18/7 2/5/7
f 6/11/3 9/16/3 5/10/3
f 1/1/1 8/15/1 7/13/1
f 3/6/2 6/11/2 5/10/2
f 9/16/4 4/8/4 1/2/4
f 8/14/5 1/3/5 4/9/5
f 3/7/6 12/20/6 8/14/6 10/17/6
f 5/10/7 9/16/7 7/12/7
f 6/11/3 10/17/3 9/16/3
f 11/19/1 7/13/1 8/15/1 12/21/1
